<svg width="900" height="900" xmlns="http://www.w3.org/2000/svg" data-name="Layer 1">
 <g>
  <title>Layer 1</title>
  <path id="svg_1" fill="#666666" d="m589.32563,803.1141l-188.76868,0a8.28589,8.28589 0 0 1 -8.27659,-8.27636l0,-131.97777a8.28589,8.28589 0 0 1 8.27659,-8.27659l188.76868,0a8.28589,8.28589 0 0 1 8.27636,8.27659l0,131.97777a8.28601,8.28601 0 0 1 -8.27636,8.27636z" stroke="null"/>
  <path id="svg_2" fill="#9e616a" d="m280.84023,462.83678a14.06002,14.06002 0 0 0 -4.50238,-21.084l-1.18959,-126.25833l-23.59798,10.8294l5.19045,122.10996a14.13623,14.13623 0 0 0 24.09951,14.40296l-0.00001,0.00001z" stroke="null"/>
  <path id="svg_3" fill="#9e616a" d="m280.2046,283.52846s-22.95563,-11.13525 -26.13032,9.87354s-16.23294,75.68681 -16.23294,75.68681l39.62505,-2.80247l2.73821,-82.75788z" stroke="null"/>
  <path id="svg_4" fill="#9e616a" d="m280.84023,462.83678a14.06002,14.06002 0 0 0 -4.50238,-21.084l-1.18959,-126.25833l-23.59798,10.8294l5.19045,122.10996a14.13623,14.13623 0 0 0 24.09951,14.40296l-0.00001,0.00001z" stroke="null"/>
  <path id="svg_5" fill="#5cdb95" d="m280.2046,283.52846s-22.95563,-11.13525 -26.13032,9.87354s-16.23294,75.68681 -16.23294,75.68681l39.62505,-2.80247l2.73821,-82.75788z" stroke="null"/>
  <path id="svg_6" fill="#5cdb95" d="m213.73784,769.89208a4.52521,4.52521 0 0 1 -3.2796,-7.84331c0.11411,-0.45353 0.19596,-0.77921 0.31007,-1.23274q-0.06124,-0.14805 -0.1232,-0.29592a12.15219,12.15219 0 0 0 -22.41609,0.08331c-3.66627,8.83007 -8.33407,17.67523 -9.48338,27.01154a35.95068,35.95068 0 0 0 0.63108,12.36413a144.13402,144.13402 0 0 1 -13.1113,-59.86344a139.11662,139.11662 0 0 1 0.8629,-15.51976q0.71487,-6.33672 1.98352,-12.58325a145.80355,145.80355 0 0 1 28.91419,-61.79538a38.80265,38.80265 0 0 0 16.13789,-16.74326a29.59875,29.59875 0 0 0 2.69182,-8.08827c-0.78562,0.10305 -1.58415,0.16743 -2.36976,0.21891c-0.24476,0.01281 -0.50231,0.02574 -0.74707,0.03866l-0.09229,0.00413a4.48346,4.48346 0 0 1 -3.68218,-7.30432q0.50881,-0.6262 1.01826,-1.25175c0.51524,-0.64402 1.04325,-1.27512 1.55841,-1.91903a2.23378,2.23378 0 0 0 0.16743,-0.19327c0.59255,-0.73415 1.18488,-1.45537 1.77743,-2.18951a12.96456,12.96456 0 0 0 -4.25024,-4.10843c-5.93742,-3.47743 -14.12875,-1.06902 -18.41764,4.3017c-4.3017,5.37062 -5.11305,12.90522 -3.61914,19.61533a51.95603,51.95603 0 0 0 7.1868,16.02197c-0.32205,0.41219 -0.65693,0.81146 -0.97889,1.2236a146.74537,146.74537 0 0 0 -15.31653,24.26504a61.00357,61.00357 0 0 0 -3.64198,-28.33491c-3.48601,-8.40961 -10.02001,-15.4922 -15.77399,-22.76233c-6.91146,-8.73251 -21.08402,-4.92144 -22.30167,6.14838q-0.01768,0.16077 -0.03453,0.32143q1.282,0.72325 2.50981,1.53527a6.13814,6.13814 0 0 1 -2.47474,11.17027l-0.12516,0.01932a61.0756,61.0756 0 0 0 1.60989,9.13156a62.88292,62.88292 0 0 0 31.30988,39.41103c0.50231,0.25756 0.99181,0.51513 1.49411,0.75987a149.78468,149.78468 0 0 0 -8.06255,37.94275a142.06645,142.06645 0 0 0 0.10305,22.93825l-0.03865,-0.27052a37.53957,37.53957 0 0 0 -12.81508,-21.67606c-9.86188,-8.10119 -23.79487,-11.08438 -34.4341,-17.59616a7.04511,7.04511 0 0 0 -10.79033,6.85379q0.0214,0.14217 0.04351,0.2843a41.23698,41.23698 0 0 1 4.62366,2.22802q1.28198,0.7234 2.50981,1.53526a6.13822,6.13822 0 0 1 -2.47474,11.17038l-0.12524,0.01922c-0.09017,0.01291 -0.16743,0.02584 -0.25746,0.03875a61.12667,61.12667 0 0 0 11.24364,17.60608a62.93875,62.93875 0 0 0 45.64461,20.02767l0.01292,0a149.7414,149.7414 0 0 0 10.05887,29.36505l35.93348,0c0.12888,-0.39927 0.24474,-0.81146 0.36069,-1.21072a40.82734,40.82734 0 0 1 -9.94301,-0.59239c2.66609,-3.27145 5.33206,-6.56863 7.99815,-9.83997a2.23102,2.23102 0 0 0 0.16745,-0.19317c1.35232,-1.67427 2.71755,-3.33573 4.06987,-5.01001l0.00073,-0.00207a59.8025,59.8025 0 0 0 -1.75231,-15.23436l-0.00111,-0.00066l0.00003,0z" stroke="null"/>
  <path id="svg_7" fill="#5cdb95" d="m743.50356,769.89208a4.52521,4.52521 0 0 1 -3.2796,-7.84331c0.11411,-0.45353 0.19596,-0.77921 0.31007,-1.23274q-0.06124,-0.14805 -0.1232,-0.29592a12.15219,12.15219 0 0 0 -22.41609,0.08331c-3.66627,8.83007 -8.33407,17.67523 -9.48338,27.01154a35.95068,35.95068 0 0 0 0.63108,12.36413a144.13402,144.13402 0 0 1 -13.1113,-59.86344a139.11662,139.11662 0 0 1 0.8629,-15.51976q0.71487,-6.33672 1.98352,-12.58325a145.80355,145.80355 0 0 1 28.91419,-61.79538a38.80265,38.80265 0 0 0 16.13789,-16.74326a29.59875,29.59875 0 0 0 2.69182,-8.08827c-0.78562,0.10305 -1.58415,0.16743 -2.36976,0.21891c-0.24476,0.01281 -0.50231,0.02574 -0.74707,0.03866l-0.09229,0.00413a4.48346,4.48346 0 0 1 -3.68218,-7.30432q0.50881,-0.6262 1.0182,-1.25175c0.51524,-0.64402 1.04325,-1.27512 1.55841,-1.91903a2.23378,2.23378 0 0 0 0.16743,-0.19327c0.59255,-0.73415 1.18488,-1.45537 1.77743,-2.18951a12.96456,12.96456 0 0 0 -4.25024,-4.10843c-5.93742,-3.47743 -14.12875,-1.06902 -18.41764,4.3017c-4.3017,5.37062 -5.11305,12.90522 -3.61914,19.61533a51.95603,51.95603 0 0 0 7.1868,16.02197c-0.32205,0.41219 -0.65693,0.81146 -0.97889,1.2236a146.74537,146.74537 0 0 0 -15.31653,24.26504a61.00357,61.00357 0 0 0 -3.64198,-28.33491c-3.48601,-8.40961 -10.02001,-15.4922 -15.77399,-22.76233c-6.91146,-8.73251 -21.08402,-4.92144 -22.30167,6.14838q-0.01768,0.16077 -0.03453,0.32143q1.282,0.72325 2.50981,1.53527a6.13814,6.13814 0 0 1 -2.47474,11.17027l-0.12516,0.01932a61.0756,61.0756 0 0 0 1.60989,9.13156a62.88292,62.88292 0 0 0 31.30994,39.41103c0.50231,0.25756 0.99181,0.51513 1.49411,0.75987a149.78468,149.78468 0 0 0 -8.06255,37.94275a142.06645,142.06645 0 0 0 0.10305,22.93825l-0.03865,-0.27052a37.53957,37.53957 0 0 0 -12.81508,-21.67606c-9.86188,-8.10119 -23.79487,-11.08438 -34.4341,-17.59616a7.04511,7.04511 0 0 0 -10.79033,6.85379q0.02139,0.14217 0.04351,0.2843a41.23698,41.23698 0 0 1 4.62366,2.22802q1.28198,0.7234 2.50981,1.53526a6.13822,6.13822 0 0 1 -2.47474,11.17038l-0.12524,0.01922c-0.09017,0.01291 -0.16743,0.02584 -0.25746,0.03875a61.12667,61.12667 0 0 0 11.24364,17.60608a62.93875,62.93875 0 0 0 45.64461,20.02767l0.01292,0a149.7414,149.7414 0 0 0 10.05887,29.36505l35.93348,0c0.12888,-0.39927 0.24474,-0.81146 0.36069,-1.21072a40.82734,40.82734 0 0 1 -9.94301,-0.59239c2.66609,-3.27145 5.33206,-6.56863 7.99815,-9.83997a2.23102,2.23102 0 0 0 0.16745,-0.19317c1.35232,-1.67427 2.71755,-3.33573 4.06987,-5.01001l0.00073,-0.00207a59.8025,59.8025 0 0 0 -1.75231,-15.23436l-0.00111,-0.00066l0.00003,0z" stroke="null"/>
  <path id="svg_8" fill="#4C261D" d="m605.12805,801.74053c-0.10335,0 -0.20665,-0.00244 -0.31004,-0.00488a10.23087,10.23087 0 0 1 -9.64618,-10.33842c0,-16.02439 -11.44651,-25.37213 -22.79027,-27.52715c-11.34377,-2.15378 -25.42105,2.34337 -31.29658,17.25354l-5.34167,13.40946a24.63664,24.63664 0 0 1 -34.8,0l-0.31616,-0.31561l0.1963,-0.40238l94.34839,-193.03735l0,-4.73075a24.4068,24.4068 0 0 1 0.0025,-4.3834l-0.0025,-486.18608a9.95192,9.95192 0 0 1 10.2577,-9.94766a10.23138,10.23138 0 0 1 9.6468,10.33842l0,485.85152a24.40805,24.40805 0 0 1 -0.00244,4.3834l0.00244,4.67326l94.54467,193.44096l-0.31616,0.31561a24.63664,24.63664 0 0 1 -34.8,0l-0.14004,-0.21281l-5.20162,-13.19669c-5.87552,-14.90896 -19.95096,-19.40365 -31.29658,-17.25354c-11.34376,2.15502 -22.79027,11.50277 -22.79027,27.52715l0,0.39138a9.95223,9.95223 0 0 1 -9.94827,9.95193l-0.00003,0.00009l0.00001,0z" stroke="null"/>
  <path id="svg_9" fill="#e5e5e5" d="m777.83218,447.43215l-345.41629,0a15.16189,15.16189 0 0 1 -15.14485,-15.1444l0,-241.49802a15.16171,15.16171 0 0 1 15.14485,-15.14482l345.41629,0a15.16189,15.16189 0 0 1 15.1444,15.14484l0,241.49802a15.16208,15.16208 0 0 1 -15.1444,15.14439l0,-0.00001z" stroke="null"/>
  <path id="svg_10" fill="#894F3F" d="m777.83223,449.31066l-345.41631,0a17.04256,17.04256 0 0 1 -17.0236,-17.02237l0,-241.4988a17.04268,17.04268 0 0 1 17.0236,-17.02299l345.41631,0a17.04256,17.04256 0 0 1 17.02299,17.02299l0,241.4988a17.04243,17.04243 0 0 1 -17.02299,17.02237zm-345.41631,-271.78696a13.28099,13.28099 0 0 0 -13.2664,13.26578l0,241.4988a13.28125,13.28125 0 0 0 13.2664,13.26517l345.41631,0a13.28073,13.28073 0 0 0 13.26578,-13.26517l0,-241.4988a13.28046,13.28046 0 0 0 -13.26578,-13.26578l-345.41631,0z" stroke="null"/>
  <path id="svg_11" fill="#4C261D" d="m656.19511,190.74422l-102.14229,0a24.45297,24.45297 0 0 1 -24.42533,-24.42533l0,-0.44409l150.99294,0l0,0.44409a24.45296,24.45296 0 0 1 -24.42532,24.42533z" stroke="null"/>
  <path id="svg_12" fill="#4C261D" d="m656.6392,462.53151l-102.14228,0a24.45325,24.45325 0 0 1 -24.42533,-24.42533l0,-0.44409l150.99294,0l0,0.44409a24.45325,24.45325 0 0 1 -24.42533,24.42533z" stroke="null"/>
  <path id="svg_13" fill="#ccc" d="m793.55229,802.98444a1.48594,1.48594 0 0 1 -1.49043,1.49036l-685.42667,0a1.49036,1.49036 0 0 1 0,-2.98071l685.42667,0a1.48599,1.48599 0 0 1 1.49043,1.49036l0,-0.00001z" stroke="null"/>
  <polygon id="svg_14" fill="#9e616a" points="335.96993255615234,768.2913818359375 354.02452850341797,768.2913818359375 362.61351776123047,698.6502685546875 335.9661178588867,698.6515502929688 335.96993255615234,768.2913818359375 " stroke="null"/>
  <path id="svg_15" fill="#2f2e41" d="m329.85547,759.38497l28.54106,-1.70352l0,12.22823l27.13478,18.74024a7.63822,7.63822 0 0 1 -4.3403,13.92376l-33.97919,0l-5.85683,-12.09559l-2.2868,12.09559l-12.81151,0l3.59879,-43.18872l0,0.00001z" stroke="null"/>
  <polygon id="svg_16" fill="#9e616a" points="274.5659408569336,380.9373779296875 272.7975387573242,389.3659973144531 271.2933883666992,420.4568786621094 331.7142868041992,412.2761535644531 336.3544235229492,376.2746887207031 329.94087982177734,365.7369384765625 274.5659408569336,380.9373779296875 " stroke="null"/>
  <polygon id="svg_17" fill="#9e616a" points="244.5959701538086,768.2913818359375 262.65059661865234,768.2913818359375 271.2395553588867,698.6502685546875 244.59221649169922,698.6515502929688 244.5959701538086,768.2913818359375 " stroke="null"/>
  <path id="svg_18" fill="#2f2e41" d="m234.80081,645.25589l-0.00068,-0.1865l6.7584,-31.55049l4.16738,-15.70671l-11.58395,-91.96302c-2.7275,-66.8137 36.03446,-98.93106 36.33952,-99.24677l0.84056,-0.87386l62.16392,-1.52129c33.44698,20.03996 29.66062,129.64784 35.78537,204.19024c0.43674,5.31537 5.92541,13.16097 4.57627,18.21722c-10.7028,40.11037 -7.5677,83.48657 -15.72139,84.76878l-24.99949,-0.34747l-12.91149,-58.59828l11.9183,-44.69362c-5.28585,-0.97377 -8.93873,-26.81615 -8.93873,-26.81615c-2.30323,-2.73484 -10.25479,-25.99475 -10.25479,-25.99475l-10.60223,-64.38566l-17.03391,110.74254l4.10225,25.98029l-3.3949,8.93319l-14.53816,73.74844l-0.15453,1.18825l-27.4093,-2.7364l-9.10844,-63.14797l0.00002,-0.00001z" stroke="null"/>
  <path id="svg_19" fill="#2f2e41" d="m238.48188,759.38497l28.54105,-1.70352l0,12.22823l27.13478,18.74024a7.63822,7.63822 0 0 1 -4.34028,13.92376l-33.9792,0l-5.85683,-12.09559l-2.2868,12.09559l-12.81151,0l3.5988,-43.18872l-0.00001,0.00001z" stroke="null"/>
  <path id="svg_20" fill="#5cdb95" d="m324.41329,259.34708l15.23913,16.93236l18.30411,34.50046l-8.9913,42.5418l3.93122,19.96291l5.80488,21.94469c-22.36726,12.3728 -48.93633,-4.71458 -73.345,-12.30383l-24.01605,10.61059l1.26993,-29.20833l0.65125,-73.59162a20.62628,20.62628 0 0 1 22.20742,-20.38301l0,0l16.08574,-11.85273l22.85866,0.84669l0.00001,0.00002z" stroke="null"/>
  <circle id="svg_21" fill="#9e616a" r="32.1332" cy="218.35055" cx="320.14487" stroke="null"/>
  <path id="svg_22" fill="#2f2e41" d="m357.95652,206.75403c-0.56609,3.14846 -14.0934,4.66801 -13.68624,-0.9336c-2.63191,5.27386 -6.56477,12.92729 -1.55517,21.69409a13.75488,13.75488 0 0 0 -1.85552,16.04713a41.52038,41.52038 0 0 1 3.56559,7.31982a11.1155,11.1155 0 0 1 0.40718,1.89696a3.629,3.629 0 0 1 -5.16455,3.72447c-13.62661,-6.67421 -37.38961,-5.54299 -52.29742,-1.47087q0.14904,-4.35014 -0.11918,-8.68048a21.45818,21.45818 0 0 1 -4.23101,9.91203c-2.55251,0.75483 -5.05531,1.53944 -7.47869,2.31415a2.14836,2.14836 0 0 1 -2.73129,-2.62204a12.08139,12.08139 0 0 0 0.25825,-5.26384c-0.61583,-3.63512 -2.44327,-6.92259 -3.73441,-10.36893s-2.02615,-7.40921 -0.44694,-10.73638c2.45315,-5.16461 9.36578,-6.74382 12.41489,-11.58065c3.42657,-5.43272 0.76478,-12.51418 1.30107,-18.92028c0.75483,-9.0579 8.17395,-16.41741 16.53671,-19.97306c14.48068,-6.15781 32.59648,-1.171 43.45206,10.211a9.94116,9.94116 0 0 1 10.39869,-0.44694c3.20805,1.71819 5.51219,2.6121 6.95233,5.95914c1.26142,2.93986 -1.41027,8.75995 -1.98633,11.91829l-0.00002,-0.00001z" stroke="null"/>
  <path id="svg_23" fill="#fff" d="m344.15449,584.62887l-75.60061,-75.6006a4.693,4.693 0 0 1 -0.0001,-6.62935l52.85623,-52.85623a4.69294,4.69294 0 0 1 6.62944,0l75.60061,75.60061a4.693,4.693 0 0 1 -0.0001,6.62935l-52.85622,52.85622a4.69305,4.69305 0 0 1 -6.62925,0z" stroke="null"/>
  <path id="svg_24" fill="#444444" d="m347.46913,587.25092a5.89892,5.89892 0 0 1 -4.19995,-1.73673l-75.60089,-75.60027a5.94381,5.94381 0 0 1 0,-8.39986l52.85648,-52.85647a5.94451,5.94451 0 0 1 8.40051,0l75.60026,75.60027a5.94377,5.94377 0 0 1 0,8.39986l-52.85647,52.85647a5.89892,5.89892 0 0 1 -4.19994,1.73673zm-22.74442,-137.82652a3.40592,3.40592 0 0 0 -2.42841,1.00413l-52.85708,52.85647a3.43991,3.43991 0 0 0 0,4.85795l75.60087,75.60027a3.52492,3.52492 0 0 0 4.85795,0l52.85647,-52.85647a3.43991,3.43991 0 0 0 0,-4.85795l-75.60089,-75.60027a3.40833,3.40833 0 0 0 -2.42892,-1.00413l0.00001,0z" stroke="null"/>
  <path id="svg_25" fill="#9e616a" d="m315.66956,456.57478a14.05998,14.05998 0 0 1 4.50238,-21.084l1.18959,-126.25833l23.59798,10.8294l-5.19045,122.10996a14.13623,14.13623 0 0 1 -24.09951,14.40296l0.00001,0.00001z" stroke="null"/>
  <path id="svg_26" fill="#9e616a" d="m316.30518,277.26645s22.95564,-11.13525 26.13034,9.87354s16.23294,75.68681 16.23294,75.68681l-39.62505,-2.80247l-2.73823,-82.75788z" stroke="null"/>
  <path id="svg_27" fill="#9e616a" d="m315.66956,456.57478a14.05998,14.05998 0 0 1 4.50238,-21.084l1.18959,-126.25833l23.59798,10.8294l-5.19045,122.10996a14.13623,14.13623 0 0 1 -24.09951,14.40296l0.00001,0.00001z" stroke="null"/>
  <path id="svg_28" fill="#5cdb95" d="m316.30518,277.26645s22.95564,-11.13525 26.13034,9.87354s16.23294,75.68681 16.23294,75.68681l-39.62505,-2.80247l-2.73823,-82.75788z" stroke="null"/>
 </g>

</svg>