<svg width="900" height="900" xmlns="http://www.w3.org/2000/svg" data-name="Layer 1">
 <g>
  <title>Layer 1</title>
  <path id="svg_1" fill="#3f3d56" d="m386.78624,383.14816c13.52653,-13.19649 18.25,-34.94486 10.5503,-48.57639c-7.69976,-13.6315 -24.907,-13.98417 -38.43353,-0.78765s-32.53695,48.88325 -24.83721,62.51481c7.69976,13.6315 39.19394,0.04575 52.72044,-13.15077zm-46.68,7.1553c-2.88119,-1.38444 -3.6656,-5.73513 -1.752,-9.71751s5.80052,-6.08842 8.68171,-4.704s3.6656,5.73513 1.752,9.71751s-5.80048,6.08845 -8.68164,4.704l-0.00007,0z"/>
  <path id="svg_2" fill="#5cdb95" d="m370.07093,373.10679q-1.95352,-1.785 -3.907,-3.56993a16.2159,16.2159 0 0 1 -4.29677,-5.26456a15.91162,15.91162 0 0 1 -0.81911,-8.95815a21.5004,21.5004 0 0 1 5.82208,-11.543l-0.20872,3.0313a23.11708,23.11708 0 0 1 5.45522,-4.66336c1.9291,-0.99625 4.051,-0.92589 4.88976,0.84555c0.96009,2.0278 0.0461,5.66572 1.34716,7.29316c2.24992,2.81423 8.11463,-3.26414 10.588,-0.76392c1.44118,1.45675 0.75887,4.913 0.00363,7.82238a43.5685,43.5685 0 0 1 -3.66259,10.36094c-3.01074,5.42138 -8.50953,9.00466 -12.22913,7.54225a10.15051,10.15051 0 0 1 -2.98253,-2.13266z"/>
  <path id="svg_3" fill="#2f2e41" d="m358.53625,373.8354c-0.68488,-2.32291 0.72207,-5.34421 2.05671,-7.88859l0.67424,-0.69853a12.508,12.508 0 0 1 4.43987,-1.27892a3.18,3.18 0 0 1 3.27651,2.23619c0.39446,1.3636 0.07631,3.31167 1.02076,4.10847c1.82632,1.54071 5.49117,-3.23157 7.23385,-1.56847c0.978,0.93331 0.271,3.33941 -0.987,4.52159a7.47824,7.47824 0 0 1 -4.20083,1.7071q-3.355,0.55758 -6.71,1.11511a11.41933,11.41933 0 0 1 -3.99108,0.20106a3.5222,3.5222 0 0 1 -2.81303,-2.45501z"/>
  <path id="svg_4" fill="#ff6584" d="m351.15759,375.56384c0.472,-3.43536 3.09914,-8.96391 5.44292,-13.68895l0.91318,-1.4393a23.37731,23.37731 0 0 1 4.48075,-4.11445c1.2748,-0.69768 2.15948,-0.183 1.839,2.09923c-0.28364,2.02012 -1.46148,5.313 -1.00164,6.16392c0.88924,1.64537 6.30314,-7.75311 7.06262,-5.87154c0.4262,1.05592 -1.30369,5.26795 -2.95169,7.75778a17.54625,17.54625 0 0 1 -4.46884,4.69562q-3.19722,2.44884 -6.39439,4.89757a10.83671,10.83671 0 0 1 -3.59,2.16665c-0.98588,0.17662 -1.61832,-0.58192 -1.33191,-2.66653z"/>
  <path id="svg_5" fill="#ffb8b8" d="m351.89663,388.05009a10.761,10.761 0 0 0 -14.52257,-7.8337l-25.01311,-28.92592l-5.39278,19.12623l24.57964,24.53629a10.81929,10.81929 0 0 0 20.34882,-6.9029z"/>
  <path id="svg_6" fill="#3f3d56" d="m268.8632,277.88388l-6.633,11.237s17.49854,8.66858 17.83855,15.5123s1.59244,5.10819 4.19575,6.98683s5.68975,6.74528 5.7882,12.095s41.48561,46.79968 41.48561,46.79968l-11.27189,15.61989a60.35147,60.35147 0 0 0 -12.14881,-8.767c-6.70062,-3.51574 -25.29638,-10.03942 -26.64726,-13.65361s-6.79337,-6.24271 -12,-10s5.952,-6.947 -2.72573,-13.20915s-55.76231,-55.562 -64.19847,-60.33018s-8.49,-19.3234 -8.49,-19.3234l6.26216,-8.67772l68.54489,25.71036z"/>
  <path id="svg_7" fill="#4C261D" d="m645.97036,571.32154l0,-5.48855a27.149,27.149 0 0 0 0,-4.87281l0,-448.74619a10.5,10.5 0 1 0 -21,0l0,448.74622a27.149,27.149 0 0 0 0,4.87281l0,5.48852l-106.29645,217.48425a26.99988,26.99988 0 0 0 38.18372,0l68.11273,-172.8148l0,170.223a10.5,10.5 0 1 0 21,0l0,-170.223l68.11273,172.8148a26.99988,26.99988 0 0 0 38.18372,0l-106.29645,-217.48425z"/>
  <path id="svg_8" fill="#5cdb95" d="m121.87908,732.65243a166.61936,166.61936 0 0 1 -28.9185,-38.27646a169.94656,169.94656 0 0 1 -16.93586,-44.6583a163.24789,163.24789 0 0 1 -3.5018,-48.31482a169.17234,169.17234 0 0 1 35.04415,-90.58756q1.858,-2.38321 3.80506,-4.69446c1.44707,-1.72264 3.906,0.75832 2.469,2.469a165.27693,165.27693 0 0 0 -37.30089,87.28092a164.35723,164.35723 0 0 0 47.80784,134.3127c1.60254,1.58016 -0.86672,4.04888 -2.469,2.469l0,-0.00002z"/>
  <path id="svg_9" fill="#5cdb95" d="m106.15962,513.77999a42.31061,42.31061 0 0 0 4.14694,-1.80914c0.06813,0.10514 0.13469,0.21205 0.203,0.317l-4.34994,1.49214z"/>
  <path id="svg_10" fill="#5cdb95" d="m133.11688,482.98027a33.67832,33.67832 0 0 1 -3.06288,9.20349a44.126,44.126 0 0 1 -18.39232,19.081c-0.43964,0.23453 -0.89394,0.48364 -1.34825,0.70351c-0.54223,-0.85 -1.09914,-1.7 -1.6267,-2.55008c-3.5612,-5.70079 -6.72677,-11.6948 -8.17761,-18.231c-1.7,-7.63528 -0.77668,-16.20861 4.1181,-22.3198c4.88019,-6.11118 14.20086,-8.85169 20.95688,-4.89477a14.74913,14.74913 0 0 1 4.83627,4.675c-0.67417,0.83527 -1.34834,1.656 -2.02242,2.49131a2.54561,2.54561 0 0 1 -0.19052,0.21986c-0.58624,0.73276 -1.18707,1.45085 -1.77331,2.18361c-2.44739,3.00429 -4.8802,6.02325 -7.32759,9.013a46.36031,46.36031 0 0 0 10.46382,0.71808c0.27845,-0.01466 0.57157,-0.02933 0.85,-0.044c0.89396,-0.05868 1.80258,-0.13194 2.69653,-0.24921z"/>
  <path id="svg_11" fill="#5cdb95" d="m83.68501,543.08115l-0.938,12.22237l-0.24911,3.31208c-0.26378,-0.13185 -0.54223,-0.26378 -0.806,-0.39563a71.52111,71.52111 0 0 1 -37.32678,-45.70949a69.48244,69.48244 0 0 1 -1.83189,-10.39055c4.74826,-0.73276 9.51119,-1.48019 14.25945,-2.21295a46.80716,46.80716 0 0 0 -14.15686,-12.26637a70.74223,70.74223 0 0 1 12.82331,-33.92662c1.23107,20.4879 22.68618,33.51637 30.54142,52.4655a42.62023,42.62023 0 0 1 -2.31554,36.90166z"/>
  <path id="svg_12" fill="#5cdb95" d="m79.61083,650.43029c-1.14306,0.05859 -2.28621,0.08793 -3.41459,0.07326a71.61612,71.61612 0 0 1 -51.93793,-22.78878a69.55679,69.55679 0 0 1 -12.794,-20.03359c0.1026,-0.01467 0.19053,-0.02934 0.29312,-0.044c4.74827,-0.73276 9.5112,-1.48019 14.25946,-2.21295a46.62514,46.62514 0 0 0 -19.41811,-14.80168a69.84628,69.84628 0 0 1 -0.23444,-20.00435c10.7276,17.48361 35.80258,18.89054 51.64482,31.90434a42.71572,42.71572 0 0 1 14.58191,24.66468a40.1823,40.1823 0 0 1 0.74743,7.23966c0.01467,0.58615 0.01467,1.15772 0,1.7293l0.35171,0.79135l5.92062,13.48276z"/>
  <path id="svg_13" fill="#5cdb95" d="m126.74191,670.66908c-3.03363,3.72238 -6.06726,7.4741 -9.10089,11.19658a46.45762,46.45762 0 0 0 11.31384,0.67408a71.62675,71.62675 0 0 1 -18.71469,31.75782c-0.83535,0.82069 -1.7,1.6267 -2.57932,2.3888c-0.17586,0.16119 -0.36638,0.32237 -0.54224,0.48356l-0.79134,-2.2422l-0.01467,-0.01467l-4.48448,-12.413a42.41163,42.41163 0 0 1 -11.35776,-20.82494l0,-0.02934a40.90936,40.90936 0 0 1 -0.71809,-14.06893c2.506,-20.356 19.71114,-38.66035 15.43185,-58.72329a71.0353,71.0353 0 0 1 21.25,28.8267c-2.44739,3.0043 -4.8802,6.02326 -7.32759,9.013a46.36031,46.36031 0 0 0 10.46382,0.71809a68.526,68.526 0 0 1 1.99308,15.1534c0.01467,0.73276 0.01467,1.45094 0,2.18369c-1.53877,1.90516 -3.09222,3.79564 -4.631,5.7008a2.54752,2.54752 0 0 1 -0.19052,0.21985z"/>
  <path id="svg_14" fill="#5cdb95" d="m722.06245,771.7898a166.61936,166.61936 0 0 1 1.45086,-47.95062a169.94589,169.94589 0 0 1 14.788,-45.41477a163.24746,163.24746 0 0 1 27.54845,-39.84554a169.17236,169.17236 0 0 1 84.07776,-48.63259q2.94141,-0.69283 5.9071,-1.27382c2.20721,-0.43559 2.56869,3.03872 0.37681,3.47129a165.277,165.277 0 0 0 -83.76424,44.64154a164.35723,164.35723 0 0 0 -46.91345,134.6277c0.25861,2.23566 -3.21273,2.61209 -3.47129,0.37682l0,-0.00001z"/>
  <path id="svg_15" fill="#5cdb95" d="m846.97287,591.37464a42.31,42.31 0 0 0 4.36538,1.18892c-0.0128,0.12463 -0.02792,0.24966 -0.04048,0.3742l-4.3249,-1.56312z"/>
  <path id="svg_16" fill="#5cdb95" d="m887.2815,584.26609a33.67821,33.67821 0 0 1 -8.1544,5.25274a44.12588,44.12588 0 0 1 -26.29031,3.34366c-0.48958,-0.09273 -0.99973,-0.1833 -1.49154,-0.29667c0.11013,-1.00221 0.20882,-2.01362 0.33038,-3.00664c0.79732,-6.67424 2.08668,-13.329 5.05211,-19.33184c3.46,-7.01539 9.55217,-13.11788 17.19629,-14.81284c7.63275,-1.70409 16.61361,2.00123 19.39881,9.31858a14.74921,14.74921 0 0 1 0.83917,6.67391c-1.04881,0.22843 -2.08848,0.4455 -3.13727,0.674a2.54669,2.54669 0 0 1 -0.28626,0.05194c-0.916,0.20365 -1.83426,0.38673 -2.75031,0.59038c-3.78991,0.80751 -7.57765,1.63558 -11.35842,2.43172a46.36085,46.36085 0 0 0 7.7043,7.11694c0.22619,0.16306 0.4638,0.33532 0.69,0.49838c0.73334,0.51464 1.48732,1.02691 2.25745,1.49574z"/>
  <path id="svg_17" fill="#5cdb95" d="m811.09662,600.1245l-8.3903,8.93693l-2.26971,2.425c-0.12294,-0.26805 -0.25725,-0.54536 -0.38019,-0.81341a71.52109,71.52109 0 0 1 -0.44356,-59.01227a69.48222,69.48222 0 0 1 5.08386,-9.24521c4.15945,2.40455 8.33953,4.80687 12.499,7.21142a46.807,46.807 0 0 0 -3.3453,-18.43066a70.74206,70.74206 0 0 1 31.25377,-18.40265c-11.87976,16.73741 -3.32462,40.33555 -9.07795,60.025a42.62026,42.62026 0 0 1 -24.92962,27.30585z"/>
  <path id="svg_18" fill="#5cdb95" d="m740.64938,681.22705c-0.92748,-0.67066 -1.83671,-1.36417 -2.70685,-2.08273a71.61614,71.61614 0 0 1 -26.19352,-50.30683a69.55663,69.55663 0 0 1 2.58421,-23.62951c0.08914,0.05286 0.16685,0.09653 0.256,0.14939c4.15945,2.40456 8.33953,4.80687 12.499,7.21143a46.62516,46.62516 0 0 0 -5.85652,-23.70346a69.84641,69.84641 0 0 1 12.35339,-15.736c-2.59655,20.34738 16.06236,37.15747 20.25266,57.22677a42.71578,42.71578 0 0 1 -4.09308,28.35887a40.18341,40.18341 0 0 1 -3.9544,6.11016c-0.3559,0.466 -0.71408,0.91139 -1.0837,1.34762l-0.22183,0.83709l-3.83536,14.2172z"/>
  <path id="svg_19" fill="#5cdb95" d="m764.69498,726.53441c-4.69676,0.99972 -9.41191,2.0223 -14.10873,3.02209a46.45781,46.45781 0 0 0 8.39429,7.61533a71.62674,71.62674 0 0 1 -34.48571,13.02054c-1.16528,0.11605 -2.34423,0.2023 -3.507,0.24517c-0.238,0.01541 -0.48753,0.02163 -0.72558,0.037l0.78842,-2.24322l-0.00224,-0.02063l4.28413,-12.48354a42.41164,42.41164 0 0 1 4.19938,-23.34614l0.01839,-0.02286a40.90926,40.90926 0 0 1 8.257,-11.41373c14.70936,-14.29278 39.58783,-17.77514 48.82584,-36.0916a71.03531,71.03531 0 0 1 -1.50494,35.781c-3.78991,0.8075 -7.57765,1.63557 -11.35843,2.43172a46.36043,46.36043 0 0 0 7.70431,7.11693a68.52593,68.52593 0 0 1 -7.943,13.05784c-0.44777,0.58022 -0.89783,1.13989 -1.36846,1.70172c-2.393,0.52036 -4.78833,1.0201 -7.18137,1.54046a2.549,2.549 0 0 1 -0.2863,0.05192z"/>
  <path stroke-width="3" stroke="#894F3F" id="svg_20" fill="#e5e5e5" d="m829.91916,497.21386l-388.89746,0a17.07049,17.07049 0 0 1 -17.05127,-17.05078l0,-271.898a17.07027,17.07027 0 0 1 17.05127,-17.05127l388.89746,0a17.07047,17.07047 0 0 1 17.05078,17.05127l0,271.898a17.07069,17.07069 0 0 1 -17.05078,17.05078z"/>
  <path id="svg_21" fill="#4C261D" d="m692.97036,208.21399l-115,0a27.53112,27.53112 0 0 1 -27.5,-27.5l0,-0.5l170,0l0,0.5a27.53112,27.53112 0 0 1 -27.5,27.5z"/>
  <path id="svg_22" fill="#4C261D" d="m693.47036,514.21399l-115,0a27.53144,27.53144 0 0 1 -27.5,-27.5l0,-0.5l170,0l0,0.5a27.53144,27.53144 0 0 1 -27.5,27.5z"/>
  <path id="svg_23" fill="#5cdb95" d="m665.47036,444.71399c0,16.56854 -12.43146,-2 -29,-2a30,30 0 0 1 0,-60c16.56854,0 29,45.4314 29,62z"/>
  <path id="svg_24" fill="#5cdb95" d="m550.47036,294.71399a30,30 0 0 1 -30,30c-16.56854,0 -25,33.56854 -25,17s8.43146,-77 25,-77a30,30 0 0 1 30,30z"/>
  <path id="svg_25" fill="#3f3d56" d="m510.08962,261.63938c4.3301,-2.52561 9.6319,-1.65711 13.74476,0.90164c4.67811,2.9104 7.26683,7.923 8.40718,13.18467a42.49192,42.49192 0 0 1 -0.057,17.12831c-1.11585,5.44489 -3.97255,11.22991 -9.76911,12.79274c-3.8634,1.04161 -8.1802,-0.30075 -9.58881,-4.28685a9.83565,9.83565 0 0 1 1.785,-9.4814c3.25205,-3.6592 8.92068,-3.848 13.17788,-2.022c5.007,2.1476 8.05932,6.995 9.34548,12.12522c1.52912,6.09938 0.56593,12.42566 -1.04326,18.40435c-1.749,6.49816 -4.06432,12.85065 -6.14684,19.24668c-4.06123,12.47329 -7.798,25.18257 -8.76952,38.32771c-1.484,20.08059 5.12734,43.25082 23.48041,54.02183c9.90741,5.81445 21.82976,6.74145 32.92062,4.44541c11.69626,-2.42137 22.14284,-8.46275 31.21411,-16.08618a137.50573,137.50573 0 0 0 13.27642,-13.00152a9.82016,9.82016 0 0 1 10.48711,-3.10247c9.542,3.03223 7.78406,18.3083 -1.65681,20.182c-4.28977,0.85136 -8.94,-1.21213 -12.11542,-3.99864a23.2838,23.2838 0 0 1 -6.97508,-11.90566c-2.4012,-9.6325 0.40288,-20.23674 6.1,-28.19484c6.43614,-8.99051 16.854,-14.58864 27.16312,-17.9182c11.73715,-3.79079 24.02892,-4.90788 36.235,-6.14423c12.491,-1.26521 25.11432,-2.74106 36.908,-7.28494a92.3427,92.3427 0 0 0 26.08816,-15.48188a96.4542,96.4542 0 0 0 31.73273,-50.736a88.35177,88.35177 0 0 0 2.22647,-14.60511c0.13192,-1.927 -2.86864,-1.91885 -3,0c-1.46886,21.45651 -11.41106,41.86669 -26.44854,57.1033a91.47616,91.47616 0 0 1 -25.94305,18.48917c-11.64091,5.501 -24.29686,7.66249 -37.0041,9.04034c-12.978,1.40721 -26.12,2.23739 -38.72824,5.85395c-11.14623,3.19721 -22.26058,8.61946 -29.85362,17.635c-6.695,7.94929 -10.364,18.855 -9.05738,29.24352c1.21582,9.66622 7.3786,19.61782 17.50514,21.71889c4.75152,0.98584 9.66975,-0.26865 12.83962,-4.08709a15.12983,15.12983 0 0 0 2.044,-15.70268a12.55131,12.55131 0 0 0 -15.85564,-5.7377a15.27541,15.27541 0 0 0 -5.44032,4.20343c-8.65547,9.49053 -18.48058,18.34853 -30.307,23.66829c-11.03073,4.96186 -24.02335,6.82722 -35.68917,3.03134c-22.08523,-7.18622 -30.54545,-32.437 -29.21423,-53.65484c0.87122,-13.8859 5.0429,-27.29823 9.35581,-40.43787c2.20235,-6.70967 4.71039,-13.40136 6.25688,-20.30181c1.3846,-6.17816 1.8079,-12.72383 -0.20929,-18.817c-1.76061,-5.3181 -5.30762,-10.05345 -10.55947,-12.28211c-4.77051,-2.0244 -10.61724,-1.97688 -14.882,1.21569c-6.166,4.61583 -6.73092,16.06055 0.88477,19.61322c5.05325,2.35732 11.14057,0.52222 14.86782,-3.39244c4.17874,-4.38886 5.53853,-10.57431 6.009,-16.4281c0.88907,-11.06138 -1.55034,-24.40334 -12.80079,-29.39472c-4.63491,-2.05633 -9.9856,-2.28779 -14.45505,0.31908a1.50112,1.50112 0 0 0 1.51416,2.59042l0.00009,0.00008z"/>
  <path id="svg_26" fill="#5cdb95" d="m779.47036,275.71399c0,17.57 27.58,62.37 18.3,75.82q-1.725,2.52 -3.65,4.9a82.59858,82.59858 0 0 1 -14.18,13.91c-0.88995,0.7 -1.79,1.37 -2.7,2.02a84.19416,84.19416 0 0 1 -10.15,6.17c-0.64,0.32 -1.29,0.64 -1.94,0.96a83.50589,83.50589 0 0 1 -94.78,-134.75c0.74,-0.74 1.5,-1.46 2.28,-2.17a83.165,83.165 0 0 1 26.55,-16.39c0.01,0 0.01,-0.01 0.02,-0.01a83.83141,83.83141 0 0 1 46.11,-3.85l0.02,0c0.34,0.07 0.68,0.14 1.02,0.22c37.76995,7.99 33.1,13.01992 33.1,53.17z"/>
  <path id="svg_27" fill="#3f3d56" d="m767.10036,378.15399a1.58039,1.58039 0 0 1 -0.01,0.38c-0.64,0.32 -1.29,0.64 -1.94,0.96a1.49972,1.49972 0 0 1 -1.05,-1.34a20.49563,20.49563 0 0 0 -0.87,-4.45c-3.9,-12.56 -17.58,-18.98 -29.52,-21.25c-14.61,-2.79 -29.98,-1.63 -43.88,-7.66a37.88825,37.88825 0 0 1 -14.71,-10.7a26.92228,26.92228 0 0 1 -5.85,-18.35c0.82,-15.59 11.81,-27.79 15.57,-42.5c1.55,-6.06 1.55,-12.38 -1.21,-18.1c-2.34,-4.86 -6.54,-9.13 -12.13995,-9.73a1.45266,1.45266 0 0 1 -1.12,-0.67005c0.74,-0.74 1.5,-1.46 2.28,-2.17a14.57873,14.57873 0 0 1 2.97,0.77c5.48,2.1 9.29,6.85 11.43,12.18c2.47,6.17 2.24,12.81 0.52,19.14c-4.01,14.76 -15.79,27.56994 -15.33,43.48c0.4,13.79 12.44,22.39 24.58,26.03c15.02,4.5 31.29,2.37 46.15,7.58c11.68995,4.10005 23.0399,13.26999 24.12995,26.40005z"/>
  <path id="svg_28" fill="#3f3d56" d="m779.94031,370.34399c-0.88995,0.7 -1.79,1.37 -2.7,2.02a1.24762,1.24762 0 0 1 -0.33,-0.98a50.76507,50.76507 0 0 0 -12.47,-35.33a50.1579,50.1579 0 0 0 -12.96,-10.74c-5.12,-2.93 -10.74,-4.5 -16.31,-6.32c-5.48,-1.79 -11.05,-3.96 -15.24,-8.05c-4.27,-4.17 -6.37,-9.82 -7.01,-15.66c-1.51,-13.84 5.42,-26.56 5.98,-40.19c0.25,-6.08 -1.09,-11.99 -4.86,-16.88c-3.26,-4.22 -8.07,-7.1 -13.52,-6.46c-1.8,0.22 -1.89,-2.42 -0.33,-2.93a1.60159,1.60159 0 0 1 0.33,-0.07c6.34,-0.74 12.09,2.74 15.86,7.62c4.39,5.67 5.91,12.58 5.47,19.65c-0.86,13.68 -8.06,26.83 -5.72,40.73a21.07323,21.07323 0 0 0 9.03,14.56c5.02,3.31 10.95,4.8 16.61,6.64a55.59953,55.59953 0 0 1 15.81,7.74a54.89289,54.89289 0 0 1 12.26,12.41a53.17958,53.17958 0 0 1 10.1,32.24z"/>
  <path id="svg_29" fill="#3f3d56" d="m797.77031,351.53399q-1.725,2.52 -3.65,4.9a56.74594,56.74594 0 0 0 -0.87,-23.38a58.90221,58.90221 0 0 0 -13.74,-25.82995a51.60231,51.60231 0 0 0 -11.44,-9.33c-4.85,-2.9 -10.15,-5.35 -13.58,-10.03c-7.44,-10.16 -2.42,-23.42 -0.02,-34.34c1.26,-5.7 1.94,-11.77 -0.39,-17.29c-1.81,-4.28 -5.39,-8.29 -10.25,-8.78c-1.91,-0.19 -1.92,-3.2 0,-3q0.54,0.06 1.08,0.15c5.31,0.96 9.4,4.92 11.62,9.8c2.88,6.37 2.31,13.25 0.84,19.92c-2.42,10.97 -8.03,25.5 2,34.46c4.23,3.78 9.72,5.87 14.28,9.22a55.75892,55.75892 0 0 1 10.88,10.49a62.58592,62.58592 0 0 1 13.24,43.03995z"/>
  <polygon id="svg_30" fill="#ffb6b6" points="260.92108154296875,766.1299514770508 278.6670837402344,766.1299514770508 287.111083984375,697.6829299926758 260.92108154296875,697.6829299926758 260.92108154296875,766.1299514770508 "/>
  <path id="svg_31" fill="#2f2e41" d="m251.55504,796.87658l12.72593,0l2.27147,-12.01487l5.81777,12.01487l33.7525,0a7.5872,7.5872 0 0 0 4.31129,-13.83084l-26.95369,-18.61513l0,-12.14662l-28.35058,1.69213l-3.57469,42.90046z"/>
  <polygon id="svg_32" fill="#ffb6b6" points="123.33908081054688,730.9219436645508 138.60308837890625,739.9729080200195 180.78009033203125,685.4079055786133 158.25408935546875,672.048957824707 123.33908081054688,730.9219436645508 "/>
  <path id="svg_33" fill="#2f2e41" d="m99.59962,752.58957l10.94582,6.4914l8.08244,-9.17555l-1.12472,13.30182l29.03117,17.2169a7.5872,7.5872 0 0 0 10.76324,-9.697l-13.68792,-29.76015l6.19592,-10.44757l-25.248,-13.006l-24.95795,35.07615z"/>
  <polygon id="svg_34" fill="#ffb6b6" points="262.841064453125,328.4839401245117 277.465087890625,383.45792388916016 195.54208374023438,384.53592681884766 206.3210906982422,331.7169418334961 262.841064453125,328.4839401245117 "/>
  <path id="svg_35" fill="#2f2e41" d="m277.78054,382.76331l17.399,56.74766l7.70448,151.75715l-19.96752,144.89654l-22.0977,0l-9.05364,-142.5344l-22.2684,-97.5276l13.03746,102.00376l-68.289,99.84159l-33.55652,0l61.6933,-110.0221l-35.91164,-114.21192s3.60139,-56.48093 26.37654,-86.4829l5.54367,-16.0161l79.38997,11.54832z"/>
  <path id="svg_36" fill="#3f3d56" d="m278.91384,277.85309c-0.04695,-0.49407 -0.1176,-1.01168 -0.21164,-1.50561a45.34465,45.34465 0 0 0 -51.35428,-38.18041a46.29468,46.29468 0 0 0 -28.55892,15.97317l0,0.02354c-0.37633,0.447 -0.72926,0.91735 -1.082,1.38788c-0.63521,0.7999 -1.22332,1.64675 -1.78789,2.4936a45.38159,45.38159 0 0 0 -7.52791,26.01822s4.2815,22.79536 5.17545,28.8412c0.61166,3.90517 1.08218,7.73969 1.435,11.48c0.21179,1.88194 0.37648,3.74047 0.51762,5.55177l0,0.02354c0.70571,8.96287 0.9409,17.00839 1.15268,23.24233c0.094,3.38755 2.44651,13.00918 2.58765,13.12678c0.14507,0.10978 0.30239,0.21564 0.46891,0.31747a8.403,8.403 0 0 0 7.90944,0.29131l10.58249,-4.93738l0,0a40.91651,40.91651 0 0 1 22.52262,-3.47925c12.57742,1.6305 30.89652,3.86959 31.72737,3.19265c0.988,-0.847 5.76132,-43.56317 7.00819,-56.99578c0.16455,-1.929 0.30583,-3.92857 0.37633,-6.06939l0,-0.02355a138.70708,138.70708 0 0 0 -0.94111,-20.77209z"/>
  <path id="svg_37" fill="#ffb8b8" d="m339.76568,285.53328a10.19587,10.19587 0 0 1 -14.56037,5.69421l-26.85612,24.322l-2.86829,-18.60867l25.94277,-20.24369a10.25114,10.25114 0 0 1 18.342,8.83614l0.00001,0.00001z"/>
  <path id="svg_38" fill="#3f3d56" d="m239.80964,238.36673s26.43025,4.93583 11.38811,56.24159l5.80785,25.43055l27.25087,-15.67478l1.65062,-6.62605l23.85922,-16.74773l11.281,20.33712l-13.717,13.107l-3.96182,8.182l-7.03659,2.32728l-21.79759,20.82828l-9.13993,5.58562s-11.62125,7.2011 -21.9589,3.29968a28.13741,28.13741 0 0 1 -7.64714,-4.3275c-4.51193,-3.5978 -8.516,-9.09708 -11.02313,-17.41129c-9.301,-30.84475 -12.7925,-52.41386 -12.7925,-52.41386l27.83693,-42.13791z"/>
  <path id="svg_39" fill="#3f3d56" d="m338.01805,310.52734l-16.001,-60.19365a1.32612,1.32612 0 0 1 2.52014,-0.8146l21.53612,56.25762l-8.05526,4.75063z"/>
  <path id="svg_40" fill="#ccc" d="m351.33923,324.17381a30.25186,30.25186 0 0 1 -6.7534,-2.26463c-1.0938,-0.52215 -2.15157,-1.11132 -3.18586,-1.71921c-0.36822,-0.20526 -0.73477,-0.42459 -1.09517,-0.63609c-0.86112,-0.50293 -1.72225,-1.00586 -2.58966,-1.51658c-0.73477,-0.42459 -1.47582,-0.85706 -2.20276,-1.28788c-1.07486,-0.62668 -2.23074,-1.35511 -2.54244,-2.56446a3.91888,3.91888 0 0 1 0.91971,-3.22638a13.19352,13.19352 0 0 1 2.70472,-2.39846q3.38735,-2.48856 6.781,-4.96933l0.60531,-1.32632a17.10941,17.10941 0 0 1 4.98688,3.22494a6.10425,6.10425 0 0 1 1.75169,4.46046a5.14132,5.14132 0 0 1 -0.17846,1.07574c-0.437,1.53748 -1.58112,2.84566 -2.26013,4.32023a8.33786,8.33786 0 0 0 -0.35627,0.94888a6.77725,6.77725 0 0 0 0.74833,5.72048a6.26032,6.26032 0 0 0 2.66651,2.15861z"/>
  <path id="svg_41" fill="#e6e6e6" d="m354.68503,324.7298a7.187,7.187 0 0 1 -3.3458,-0.556a33.74514,33.74514 0 0 0 3.3458,0.556z"/>
  <path id="svg_42" fill="#5cdb95" d="m351.33923,324.17381a30.25186,30.25186 0 0 1 -6.7534,-2.26463c-1.0938,-0.52215 -2.15157,-1.11132 -3.18586,-1.71921c-0.36822,-0.20526 -0.73477,-0.42459 -1.09517,-0.63609c-0.86112,-0.50293 -1.72225,-1.00586 -2.58966,-1.51658a14.57579,14.57579 0 0 1 0.97207,-1.17108c3.205,-3.48761 7.583,-5.45506 12.032,-6.91635a5.14132,5.14132 0 0 1 -0.17846,1.07574c-0.437,1.53748 -1.58112,2.84566 -2.26013,4.32023a8.33786,8.33786 0 0 0 -0.35627,0.94888a6.77725,6.77725 0 0 0 0.74833,5.72048a6.26032,6.26032 0 0 0 2.66655,2.15861z"/>
  <path id="svg_43" fill="#ccc" d="m884.41831,797.09604a1.18647,1.18647 0 0 1 -1.19007,1.19l-862.29,0a1.19,1.19 0 1 1 0,-2.38l862.29,0a1.18651,1.18651 0 0 1 1.19007,1.19z"/>
  <circle id="svg_44" fill="#ffb6b6" r="34.63853" cy="629.72828" cx="252.49933" transform="rotate(-61.3368 -125.418 433.639)"/>
  <path id="svg_45" fill="#2f2e41" d="m206.78743,167.8276l0,0.02436a17.412,17.412 0 0 1 -0.57186,4.4656c-0.0609,0.25555 -0.1339,0.52321 -0.21908,0.77877l0,0.01217a17.66382,17.66382 0 0 1 -10.89018,11.34049c-0.3772,0.146 -0.76658,0.26766 -1.156,0.3772a15.78218,15.78218 0 0 1 -2.50658,0.511a15.99474,15.99474 0 0 1 -2.29975,0.15819a17.512,17.512 0 0 1 -1.80083,-0.08518a17.039,17.039 0 0 1 -4.10058,-0.93695a5.153,5.153 0 0 1 -0.60839,-0.219a2.96748,2.96748 0 0 1 -0.2921,-0.12165a17.66092,17.66092 0 0 1 -9.11374,-23.91l0.01218,-0.01218a17.30729,17.30729 0 0 1 3.46789,-4.86716c3.188,-3.17581 4.59276,-11.13482 9.43557,-11.13482a6.621,6.621 0 0 1 0.69358,0.02428c3.24881,0.10955 9.25432,7.1195 11.80955,8.77432a17.22315,17.22315 0 0 1 4.8428,4.58733a17.44,17.44 0 0 1 2.84732,6.2786a17.66888,17.66888 0 0 1 0.4502,3.95463z"/>
  <path id="svg_46" fill="#2f2e41" d="m185.23037,161.68391c-2.74,3.19 -7.03,4.43 -10.9,6.09a45.855,45.855 0 0 0 -26.64,33.5c-1.07,5.97 -0.93,12.15 -2.62,17.97c-1.68,5.82 -5.84,11.53 -11.81,12.54c-4.04,0.69 -8.09,-0.87 -11.89,-2.41q-3.135,-1.26 -6.27,-2.53q3.27,-8.205 6.53,-16.41a83.16091,83.16091 0 0 1 -12.11,14.17q-11.235,-4.53 -22.49,-9.06006c18.46,0.07 15.31,-17.85 19.44,-35.82995c2.27,-9.88 21.6,-16.57 25.39,-25.97a28.75636,28.75636 0 0 1 52.16,-2.62c3.79002,1.51002 3.9,7.41009 1.21,10.56001z"/>
  <path id="svg_47" fill="#2f2e41" d="m259.26669,161.43781c-3.37977,-4.45068 -11.89393,-4.62378 -13.60212,0.69721l-3.59021,-4.86914c-4.6582,-10.17829 -16.94879,-8.1073 -28.06158,-6.76471c-11.11273,1.34259 -20.9054,9.17364 -25.87689,19.20257c-4.9715,10.029 -5.42224,21.9397 -2.559,32.76087c1.92645,7.28076 5.46368,14.38476 11.33258,19.10455s33.45837,15.8822 35.75506,6.27057c-2.87109,12.53949 2.905,10.5766 11.45508,20.188c4.42847,-13.303 6.50452,-38.36823 10.933,-51.67127q0.99994,-3.00366 1.99982,-6.00738c1.40515,-4.221 2.81232,-8.4491 3.82764,-12.7804c1.27547,-5.44099 1.76631,-11.68018 -1.61338,-16.13087z"/>
  <path id="svg_48" fill="#ff6584" d="m236.49759,199.62627l-1.48062,-9.42592c1.00623,-11.72326 -0.63636,-30.37065 7.05738,-32.93447l4.70493,4.70493c-2.97619,0.99244 -8.6368,18.52333 -10.28169,37.65546z"/>
  <path id="svg_49" fill="#ff6584" d="m247.47036,149.71399c0,7.1797 -2.46243,13 -5.5,13s-5.5,-5.8203 -5.5,-13s5.5,-13 5.5,-13s5.5,5.82024 5.5,13z"/>
  <path id="svg_50" fill="#ff6584" d="m252.00681,152.92399c-2.885,6.57458 -7.47856,10.91488 -10.26011,9.69433s-2.69774,-7.53977 0.18721,-14.11436s10.26011,-9.69432 10.26011,-9.69432s2.69774,7.53972 -0.18721,14.11435z"/>
 </g>

</svg>